PathFileType	4	(X/Y/Z)	1H_nor_fast_left.trc
DataRate	CameraRate	NumFrames	NumMarkers	Units	OrigDataRate	OrigDataStartFrame	OrigNumFrames
250.00	250.00	17	18	mm	250.00	6670	7622
Frame#	Time	c7	r_should	r_elb_m	clavicle	r_upa	r_wri_m	l_upa	l_elb_l	l_low	l_wri_l	l_met	l_elb_m	r_elb_l	l_should	r_low	r_wri_l	r_met	l_wri_m
	X1	Y1	Z1	X2	Y2	Z2	X3	Y3	Z3	X4	Y4	Z4	X5	Y5	Z5	X6	Y6	Z6	X7	Y7	Z7	X8	Y8	Z8	X9	Y9	Z9	X10	Y10	Z10	X11	Y11	Z11	X12	Y12	Z12	X13	Y13	Z13	X14	Y14	Z14	X15	Y15	Z15	X16	Y16	Z16	X17	Y17	Z17	X18	Y18	Z18
6670	26.67600	1081.87793	1425.49231	145.54083	1141.15637	1352.89941	310.60950	nan	nan	nan	1204.34448	1295.95300	136.58513	1170.58032	1135.03955	344.72238	1156.93945	783.62909	374.56424	1134.20007	1192.15088	-127.68340	1149.03711	1105.79370	-151.74286	1211.48828	1029.75720	-101.79922	1271.01465	984.02411	-17.10868	1335.27600	924.35693	-14.25389	1082.36316	1078.96069	-93.77426	1180.56702	1043.39233	352.67044	1124.60156	1380.64453	-25.37746	1196.88879	907.21857	337.11667	1201.99365	781.14581	313.35263	1235.51038	721.91626	350.42728	1232.19495	917.04749	-36.79863
6671	26.68000	1081.93909	1425.47632	145.57301	1141.09558	1352.88367	310.72287	nan	nan	nan	1204.42896	1295.97375	136.78252	1170.51453	1135.02661	344.87219	1156.88281	783.60547	374.70813	1134.39392	1191.39612	-127.38776	1148.62012	1105.14880	-151.81474	1210.85620	1027.89929	-102.37823	1270.43347	980.82587	-18.18590	1334.05664	920.67303	-16.11040	1082.19092	1078.33521	-93.54436	1180.51428	1043.39453	352.82254	1125.09509	1380.26294	-25.50124	1196.86401	907.21277	337.31760	1202.05359	781.34558	313.82806	1235.47974	721.88196	350.64990	1230.79114	914.56647	-38.03587
6672	26.68400	1082.00122	1425.45801	145.59506	1141.04065	1352.87695	310.82864	nan	nan	nan	1204.52344	1295.98120	136.97751	1170.44971	1135.01233	345.01257	1156.82104	783.57501	374.84549	1135.12256	1190.06921	-126.60372	1149.02307	1103.64294	-151.17039	1210.22644	1026.05347	-102.92175	1269.82861	977.67090	-19.27543	1332.81250	916.99512	-17.97018	1082.03601	1077.69604	-93.30354	1180.46960	1043.39478	352.97781	1125.57385	1379.87915	-25.62296	1196.84290	907.20844	337.49979	1202.15820	781.83624	314.62805	1235.50098	721.76294	350.81155	1229.39563	912.04761	-39.22829
6673	26.68800	1082.06433	1425.44019	145.60980	1140.99341	1352.87012	310.93613	nan	nan	nan	1204.62598	1295.99023	137.15657	1170.39209	1134.99792	345.15100	1156.75854	783.54938	374.98895	1135.32776	1189.29956	-126.30460	1148.67249	1102.93921	-151.23024	1209.59729	1024.23413	-103.44875	1269.20691	974.54309	-20.37068	1331.55371	913.33539	-19.84249	1081.89258	1077.03198	-93.03603	1180.42456	1043.38672	353.13541	1126.03149	1379.50549	-25.74314	1196.81592	907.19476	337.67810	1202.18091	781.95062	314.95654	1235.65100	721.53937	350.90936	1227.96362	909.55103	-40.46603
6674	26.69200	1082.13257	1425.42249	145.62250	1140.95044	1352.85852	311.04092	nan	nan	nan	1205.52039	1295.82336	137.67580	1170.33850	1134.98865	345.29169	1156.70020	783.53796	375.14365	1135.08105	1189.02344	-126.41515	1147.81921	1102.78125	-151.74025	1208.94958	1022.43652	-103.98444	1268.54895	971.43683	-21.49317	1330.26196	909.71802	-21.71842	1081.74854	1076.38928	-92.76153	1180.36719	1043.37305	353.28067	1126.47461	1379.13965	-25.85445	1196.78308	907.18060	337.84424	1202.20361	781.97540	315.18530	1235.85767	721.45929	351.12137	1226.53015	907.06958	-41.69987
6675	26.69600	1082.21130	1425.40894	145.62938	1140.91296	1352.84827	311.13660	nan	nan	nan	1207.40674	1295.43713	138.63097	1170.28003	1134.97778	345.42346	1156.64600	783.53052	375.29370	1134.40857	1189.21191	-126.91727	1147.49243	1102.08325	-151.76241	1208.28833	1020.66241	-104.52039	1267.86548	968.38843	-22.64689	1328.93433	906.14368	-23.58747	1081.58215	1075.74512	-92.45048	1180.31421	1043.35803	353.43045	1126.90662	1378.77441	-25.96546	1196.74646	907.16663	338.00882	1202.17029	781.75220	315.10345	1235.91943	721.65326	351.53098	1225.08496	904.62347	-42.96774
6676	26.70000	1082.29492	1425.39270	145.63113	1140.88782	1352.83789	311.22919	nan	nan	nan	1207.97058	1295.33301	138.97359	1170.22522	1134.96033	345.55905	1156.58545	783.52228	375.44305	1134.59387	1188.49695	-126.63094	1147.62927	1100.90381	-151.38974	1207.62622	1018.90674	-105.06338	1267.15649	965.35101	-23.77980	1327.58252	902.60461	-25.42958	1081.41260	1075.10864	-92.12267	1180.26526	1043.34692	353.58112	1127.32812	1378.41968	-26.06295	1196.70996	907.14136	338.17447	1202.08960	781.24542	314.67871	1235.90198	721.68768	351.80090	1223.64307	902.19006	-44.23303
6677	26.70400	1082.38245	1425.38318	145.64119	1140.86841	1352.83215	311.31232	nan	nan	nan	1208.19348	1295.30786	139.16664	1170.17200	1134.93945	345.69583	1156.52173	783.52246	375.58530	1134.98840	1187.57117	-126.12049	1147.87817	1099.62964	-150.91840	1206.96777	1017.15448	-105.55989	1266.40479	962.34814	-24.90945	1325.81567	899.42120	-27.99446	1081.26025	1074.48804	-91.80278	1180.20923	1043.33521	353.72739	1127.74658	1378.08105	-26.15500	1196.67957	907.12073	338.34714	1202.08594	781.11090	314.72833	1235.86658	721.68518	352.03287	1222.21045	899.77100	-45.50731
6678	26.70800	1082.47705	1425.37695	145.65706	1140.85034	1352.82642	311.39389	nan	nan	nan	1208.32874	1295.31079	139.32008	1170.11853	1134.93213	345.82806	1156.45740	783.52887	375.72098	1134.47302	1187.64453	-126.42449	1147.20776	1099.36572	-151.24327	1206.31238	1015.42114	-106.00059	1265.62524	959.38129	-26.03423	1323.52258	896.66351	-31.41318	1081.13818	1073.84656	-91.45589	1180.15259	1043.32507	353.87189	1128.14343	1377.75867	-26.23846	1196.65430	907.11542	338.52475	1202.09802	781.08667	314.89111	1235.82336	721.68298	352.26505	1220.75378	897.38220	-46.77836
6679	26.71200	1082.57104	1425.37268	145.68156	1140.83875	1352.82385	311.47577	nan	nan	nan	1208.45227	1295.31860	139.46272	1170.06860	1134.93054	345.95758	1156.39417	783.53467	375.85950	1134.37244	1187.29114	-126.33604	1146.95288	1098.67407	-151.17818	1205.64868	1013.69116	-106.44058	1264.83496	956.41699	-27.12947	1321.85693	893.40802	-33.55910	1081.03015	1073.19263	-91.07973	1180.09729	1043.32764	354.01834	1128.51587	1377.46387	-26.32066	1196.63281	907.11523	338.69104	1202.11438	781.08600	315.08405	1235.77600	721.68176	352.49216	1218.84729	895.20624	-48.10327
6680	26.71600	1082.66248	1425.36926	145.70085	1140.83350	1352.81885	311.55359	nan	nan	nan	1208.57495	1295.32495	139.60541	1170.02100	1134.92407	346.09317	1156.33044	783.53070	375.99976	1134.37415	1186.83313	-126.14616	1146.80872	1097.87244	-151.01459	1204.99182	1011.98242	-106.87710	1264.02502	953.45996	-28.23057	1320.34729	890.06525	-35.38961	1080.94165	1072.54492	-90.67532	1180.04773	1043.32336	354.15585	1128.87195	1377.18591	-26.40011	1196.62158	907.11816	338.86267	1202.13037	781.06903	315.29123	1235.73120	721.68243	352.72913	1216.52539	893.36292	-49.12914
6681	26.72000	1082.75574	1425.36731	145.72121	1140.83459	1352.81543	311.62918	nan	nan	nan	1208.71069	1295.33606	139.73477	1169.97302	1134.91016	346.22806	1156.26355	783.52753	376.12473	1134.41370	1186.36182	-125.92940	1146.67749	1097.04321	-150.80647	1204.34094	1010.29706	-107.28291	1263.18909	950.55029	-29.31565	1318.86267	886.70886	-37.13453	1080.88354	1071.91040	-90.22797	1180.00574	1043.31616	354.28979	1129.21729	1376.91431	-26.47347	1196.61218	907.11249	339.03439	1202.12854	781.05292	315.48807	1235.81348	721.79797	353.07324	1215.24426	891.28333	-49.50886
6682	26.72400	1082.84705	1425.36609	145.73766	1140.83740	1352.81750	311.70374	nan	nan	nan	1208.85559	1295.35193	139.86246	1169.92993	1134.90234	346.36502	1156.20154	783.52972	376.24866	1134.47339	1185.91296	-125.70059	1146.56787	1096.21948	-150.56210	1203.68750	1008.63623	-107.63792	1262.34326	947.66113	-30.37218	1317.36951	883.37256	-38.88960	1080.82581	1071.27551	-89.76466	1179.96594	1043.32129	354.42429	1129.54712	1376.63855	-26.54108	1196.60693	907.12494	339.20477	1202.18701	781.28766	315.95419	1235.94983	722.04828	353.52972	1213.91602	889.02960	-50.33855
6683	26.72800	1082.93701	1425.36462	145.76036	1140.83923	1352.82227	311.77710	nan	nan	nan	1209.00220	1295.37805	139.99002	1169.89661	1134.89526	346.49225	1156.14282	783.53339	376.37274	1134.53149	1185.46338	-125.44732	1146.49109	1095.40833	-150.29254	1203.04419	1006.99640	-107.97110	1261.48584	944.78223	-31.45126	1315.86218	880.07910	-40.63722	1080.75989	1070.62866	-89.29729	1179.93750	1043.32959	354.55487	1129.86731	1376.37573	-26.59398	1196.60657	907.14362	339.37485	1202.27588	781.57794	316.49374	1235.66248	722.02490	353.74686	1212.54651	886.72888	-51.36670
6684	26.73200	1083.02332	1425.35889	145.77698	1140.84814	1352.83105	311.85776	nan	nan	nan	1209.14844	1295.40259	140.10739	1169.87634	1134.89734	346.60385	1156.09399	783.54529	376.49942	1134.59131	1185.01013	-125.17654	1146.43140	1094.61511	-149.99283	1202.40845	1005.39734	-108.28328	1260.62048	941.92230	-32.52350	1314.34460	876.81055	-42.39281	1080.72083	1070.00110	-88.83414	1179.91748	1043.33984	354.67987	1130.19080	1376.12000	-26.64406	1196.61072	907.15314	339.54095	1202.54504	781.57983	316.48703	1235.32861	721.91718	353.90161	1211.12561	884.41595	-52.50281
6685	26.73600	1083.11584	1425.34875	145.79092	1140.86157	1352.83459	311.93585	nan	nan	nan	1209.29285	1295.41809	140.21970	1169.85815	1134.89124	346.70941	1156.05090	783.55994	376.62109	1134.65527	1184.54956	-124.89309	1146.36609	1093.83008	-149.69531	1201.77966	1003.80542	-108.59329	1259.58948	939.14032	-33.28699	1312.81335	873.56543	-44.13875	1080.68848	1069.39746	-88.34103	1179.89917	1043.34937	354.80130	1130.51501	1375.85925	-26.69804	1196.61328	907.15771	339.69562	1203.03125	782.34717	317.26331	1235.08325	721.81879	354.06818	1209.71570	882.08826	-53.59785
6686	26.74000	1083.21106	1425.34253	145.80257	1140.87634	1352.83960	312.01019	nan	nan	nan	1209.43311	1295.42468	140.32114	1169.85217	1134.89441	346.81293	1156.00781	783.57336	376.74600	1134.71130	1184.10010	-124.61736	1146.29907	1093.03577	-149.40408	1201.12988	1002.20154	-108.89210	1258.36169	936.40216	-33.67931	1311.25037	870.34808	-45.87750	1080.65198	1068.79517	-87.81796	1179.89038	1043.36096	354.91629	1130.83118	1375.60205	-26.74573	1196.62097	907.16541	339.84961	1202.73291	782.41150	317.62982	1234.95911	721.76599	354.28433	1208.27173	879.81860	-54.72869
